<?xml version="1.0" encoding="UTF-8" standalone="no"?>
<!-- Created with Inkscape (http://www.inkscape.org/) -->

<svg
   xmlns:dc="http://purl.org/dc/elements/1.1/"
   xmlns:cc="http://creativecommons.org/ns#"
   xmlns:rdf="http://www.w3.org/1999/02/22-rdf-syntax-ns#"
   xmlns:svg="http://www.w3.org/2000/svg"
   xmlns="http://www.w3.org/2000/svg"
   xmlns:sodipodi="http://sodipodi.sourceforge.net/DTD/sodipodi-0.dtd"
   xmlns:inkscape="http://www.inkscape.org/namespaces/inkscape"
   width="3208.5349"
   height="734.88898"
   viewBox="0 0 3208.5346 734.88897"
   id="svg2"
   version="1.1"
   inkscape:version="0.91 r13725"
   sodipodi:docname="peer-calls.svg">
  <defs
     id="defs4" />
  <sodipodi:namedview
     id="base"
     pagecolor="#000000"
     bordercolor="#666666"
     borderopacity="1.0"
     inkscape:pageopacity="0.0"
     inkscape:pageshadow="2"
     inkscape:zoom="0.25"
     inkscape:cx="2441.8395"
     inkscape:cy="-196.41089"
     inkscape:document-units="px"
     inkscape:current-layer="layer1"
     showgrid="false"
     units="px"
     fit-margin-top="0"
     fit-margin-left="0"
     fit-margin-right="0"
     fit-margin-bottom="0"
     inkscape:window-width="1916"
     inkscape:window-height="1060"
     inkscape:window-x="0"
     inkscape:window-y="16"
     inkscape:window-maximized="0" />
  <metadata
     id="metadata7">
    <rdf:RDF>
      <cc:Work
         rdf:about="">
        <dc:format>image/svg+xml</dc:format>
        <dc:type
           rdf:resource="http://purl.org/dc/dcmitype/StillImage" />
        <dc:title></dc:title>
      </cc:Work>
    </rdf:RDF>
  </metadata>
  <g
     inkscape:label="Layer 1"
     inkscape:groupmode="layer"
     id="layer1"
     transform="translate(-226.96012,260.79652)">
    <g
       transform="translate(207.07484,-679.35394)"
       style="font-style:italic;font-variant:normal;font-weight:normal;font-stretch:normal;font-size:40px;line-height:125%;font-family:'Libre Baskerville';-inkscape-font-specification:'Libre Baskerville Italic';letter-spacing:0px;word-spacing:0px;fill:#000;fill-opacity:1;stroke:none;stroke-width:1px;stroke-linecap:butt;stroke-linejoin:miter;stroke-opacity:1"
       id="flowRoot3336">

    </g>
    <path
       id="path3392"
       d="m 2168.8632,411.23321 -48.4143,48.71077 c -8.6494,8.65647 -33.97,14.12794 -34.7274,14.12794 -153.2658,1.30041 -300.8238,-59.24895 -409.2648,-168.37703 -108.7504,-109.39648 -168.9996,-258.442505 -167.3276,-413.09491 0,-0.0904 5.5508,-24.84842 14.1774,-33.46039 l 48.4142,-48.75526 c 17.7654,-17.8512 51.7781,-25.92492 75.6065,-17.94162 l 10.2087,3.4534 c 23.8283,7.9833 48.7252,34.44646 55.3232,58.80113 l 24.3847,90.01954 c 6.6194,24.400593 -2.274,59.1154614 -20.0165,76.96665 l -32.3651,32.563314 c 31.7416,118.367296 123.9979,211.168506 241.5775,243.147636 l 32.3651,-32.5633 c 17.7439,-17.85263 52.3373,-26.7775 76.5894,-20.13912 l 89.4715,24.58001 c 24.1622,6.59391 50.4642,31.62031 58.4445,55.61614 l 3.3882,10.27122 c 7.9318,24.00014 -0.091,58.2227 -17.8352,76.07388 z m -248.933,-304.59551 45.6494,0 c 0,-50.728842 -40.8789,-91.858203 -91.2989,-91.858203 l 0,45.929098 c 25.165,0 45.6495,20.631424 45.6495,45.929105 z m 182.5979,0 c 0,-126.844355 -102.1767,-229.64693 -228.2474,-229.64693 l 0,45.930533 c 100.7059,0 182.5979,82.4395639 182.5979,183.716397 l 45.6495,0 z m -228.2474,-367.43422 0,45.9291 c 176.1782,0 319.5464,144.24627 319.5464,321.50512 l 45.6495,0 c 0,-202.913924 -163.5174,-367.43422 -365.1959,-367.43422 z"
       inkscape:connector-curvature="0"
       style="fill:#000;fill-opacity:1" />
    <g
       transform="translate(2342.1948,-679.35394)"
       style="font-style:italic;font-variant:normal;font-weight:normal;font-stretch:normal;font-size:40px;line-height:125%;font-family:'Libre Baskerville';-inkscape-font-specification:'Libre Baskerville Italic';letter-spacing:0px;word-spacing:0px;fill:#fff;fill-opacity:1;stroke:none;stroke-width:1px;stroke-linecap:butt;stroke-linejoin:miter;stroke-opacity:1"
       id="flowRoot3336-5">



    </g>
  </g>
</svg>
